<svg xmlns="http://www.w3.org/2000/svg" xmlns:xlink="http://www.w3.org/1999/xlink" viewBox="0,0,256,256" width="24px" height="24px"><g fill="none" fill-rule="nonzero" stroke="none" stroke-width="1" stroke-linecap="butt" stroke-linejoin="miter" stroke-miterlimit="10" stroke-dasharray="" stroke-dashoffset="0" font-family="none" font-weight="none" font-size="none" text-anchor="none" style="mix-blend-mode: normal"><g transform="scale(5.33333,5.33333)"><path d="M43.982,23.635c0.069,-4.261 -0.891,-9.328 -2.891,-15.273l-1.568,-4.662l-2.13,4.433c-0.114,0.237 -0.244,0.469 -0.38,0.698c-3.499,-3.004 -8.039,-4.831 -13.013,-4.831c-11.046,0 -20,8.954 -20,20c0,11.046 8.954,20 20,20c11.046,0 20,-8.954 20,-20c0,-0.123 -0.016,-0.242 -0.018,-0.365z" fill="#8bc34a"></path><path d="M39.385,32.558c-3.123,4.302 -8.651,4.533 -13.854,4.442h-6.781h-1.938c4.428,-1.593 7.063,-1.972 9.754,-3.4c5.068,-2.665 10.078,-8.496 11.121,-14.562c-1.93,5.836 -7.779,10.85 -13.109,12.889c-3.652,1.393 -10.248,2.745 -10.248,2.745l-0.267,-0.145c-4.49,-2.259 -4.626,-12.313 3.537,-15.559c3.574,-1.423 6.993,-0.641 10.854,-1.593c4.122,-1.012 8.89,-4.208 10.83,-8.375c2.172,6.667 4.786,17.106 0.101,23.558zM15.668,38.445c-0.282,0.35 -0.713,0.555 -1.163,0.555c-0.823,0 -1.495,-0.677 -1.495,-1.5c0,-0.823 0.677,-1.5 1.495,-1.5c0.341,0 0.677,0.118 0.941,0.336c0.64,0.519 0.74,1.469 0.222,2.109z" fill="#ffffff"></path></g></g><g fill="#000000" fill-rule="nonzero" stroke="none" stroke-width="1" stroke-linecap="butt" stroke-linejoin="miter" stroke-miterlimit="10" stroke-dasharray="" stroke-dashoffset="0" font-family="none" font-weight="none" font-size="none" text-anchor="none" style="mix-blend-mode: normal"><g><path d="M97.37,126.755v0c-1.71333,-0.49333 -2.96333,-1.09667 -3.75,-1.81c-0.78,-0.72 -1.17,-1.61 -1.17,-2.67v0c0,-1.19333 0.47667,-2.18 1.43,-2.96c0.96,-0.78 2.20333,-1.17 3.73,-1.17v0c1.04,0 1.97,0.2 2.79,0.6c0.81333,0.40667 1.44333,0.96333 1.89,1.67c0.44667,0.70667 0.67,1.48 0.67,2.32v0h-2.01c0,-0.91333 -0.29,-1.63333 -0.87,-2.16c-0.58667,-0.52667 -1.41,-0.79 -2.47,-0.79v0c-0.98667,0 -1.75667,0.22 -2.31,0.66c-0.55333,0.43333 -0.83,1.03333 -0.83,1.8v0c0,0.62 0.26333,1.14333 0.79,1.57c0.52667,0.42667 1.42,0.81667 2.68,1.17c1.26,0.35333 2.24667,0.74333 2.96,1.17c0.70667,0.42667 1.23333,0.92667 1.58,1.5c0.34,0.56667 0.51,1.23667 0.51,2.01v0c0,1.22667 -0.47667,2.21 -1.43,2.95c-0.96,0.74 -2.24333,1.11 -3.85,1.11v0c-1.04,0 -2.01,-0.2 -2.91,-0.6c-0.90667,-0.4 -1.60333,-0.94667 -2.09,-1.64c-0.49333,-0.69333 -0.74,-1.48 -0.74,-2.36v0h2.01c0,0.91333 0.34,1.63667 1.02,2.17c0.68,0.53333 1.58333,0.8 2.71,0.8v0c1.06,0 1.87,-0.21667 2.43,-0.65c0.56,-0.43333 0.84,-1.02 0.84,-1.76c0,-0.74 -0.26,-1.31333 -0.78,-1.72c-0.52,-0.40667 -1.46333,-0.81 -2.83,-1.21zM114.78,127.835v0.17c0,1.72 -0.39333,3.10333 -1.18,4.15c-0.78667,1.04667 -1.85,1.57 -3.19,1.57v0c-1.36667,0 -2.44333,-0.43333 -3.23,-1.3v0v5.43h-1.93v-15.61h1.77l0.09,1.25c0.78667,-0.97333 1.87667,-1.46 3.27,-1.46v0c1.35333,0 2.42333,0.51333 3.21,1.54c0.79333,1.02 1.19,2.44 1.19,4.26zM112.85,127.785v0c0,-1.26667 -0.27,-2.27 -0.81,-3.01c-0.54667,-0.73333 -1.29,-1.1 -2.23,-1.1v0c-1.16667,0 -2.04333,0.51667 -2.63,1.55v0v5.39c0.58,1.02667 1.46333,1.54 2.65,1.54v0c0.92,0 1.65333,-0.36667 2.2,-1.1c0.54667,-0.73333 0.82,-1.82333 0.82,-3.27zM122.67,122.185v1.79c-0.29333,-0.04667 -0.61,-0.07 -0.95,-0.07v0c-1.26,0 -2.11667,0.53667 -2.57,1.61v0v8h-1.93v-11.27h1.88l0.03,1.3c0.63333,-1.00667 1.53,-1.51 2.69,-1.51v0c0.37333,0 0.65667,0.05 0.85,0.15zM126.54,122.245v11.27h-1.93v-11.27zM124.45,119.255v0c0,-0.31333 0.09667,-0.57667 0.29,-0.79c0.19333,-0.21333 0.47667,-0.32 0.85,-0.32c0.37333,0 0.65667,0.10667 0.85,0.32c0.19333,0.21333 0.29,0.47667 0.29,0.79c0,0.31333 -0.09667,0.57333 -0.29,0.78c-0.19333,0.21333 -0.47667,0.32 -0.85,0.32c-0.37333,0 -0.65667,-0.10667 -0.85,-0.32c-0.19333,-0.20667 -0.29,-0.46667 -0.29,-0.78zM129.62,122.245h1.82l0.06,1.42c0.86667,-1.08667 1.99333,-1.63 3.38,-1.63v0c2.38,0 3.58,1.34667 3.6,4.04v0v7.44h-1.92v-7.45c-0.00667,-0.81333 -0.19333,-1.41667 -0.56,-1.81c-0.36667,-0.38667 -0.93333,-0.58 -1.7,-0.58v0c-0.62667,0 -1.17667,0.16667 -1.65,0.5c-0.47333,0.33333 -0.84,0.77 -1.1,1.31v0v8.03h-1.93zM142.08,119.515h1.92v2.73h2.11v1.49h-2.11v6.99c0,0.45333 0.09667,0.79333 0.29,1.02c0.18667,0.22667 0.50333,0.34 0.95,0.34v0c0.22667,0 0.53333,-0.04333 0.92,-0.13v0v1.56c-0.50667,0.14 -1,0.21 -1.48,0.21v0c-0.86,0 -1.51,-0.26 -1.95,-0.78c-0.43333,-0.52 -0.65,-1.26 -0.65,-2.22v0v-6.99h-2.05v-1.49h2.05zM159.2,133.515h-5.26v-15.16h4.96c1.64667,0 2.88333,0.34 3.71,1.02c0.83333,0.68 1.25,1.68667 1.25,3.02v0c0,0.70667 -0.20333,1.33333 -0.61,1.88c-0.4,0.54667 -0.94667,0.96667 -1.64,1.26v0c0.82,0.23333 1.46667,0.67 1.94,1.31c0.48,0.64667 0.72,1.41333 0.72,2.3v0c0,1.36 -0.44333,2.43 -1.33,3.21c-0.88,0.77333 -2.12667,1.16 -3.74,1.16zM159.28,126.425h-3.34v5.46h3.3c0.93333,0 1.67,-0.24333 2.21,-0.73c0.53333,-0.48 0.8,-1.14333 0.8,-1.99v0c0,-1.82667 -0.99,-2.74 -2.97,-2.74zM155.94,119.995v4.83h3.02c0.88,0 1.58,-0.22 2.1,-0.66c0.52667,-0.44 0.79,-1.03333 0.79,-1.78v0c0,-0.83333 -0.24333,-1.44 -0.73,-1.82c-0.48667,-0.38 -1.22667,-0.57 -2.22,-0.57v0zM166.41,127.915v-0.14c0,-1.1 0.21667,-2.09333 0.65,-2.98c0.43333,-0.88 1.03667,-1.56 1.81,-2.04c0.78,-0.48 1.66667,-0.72 2.66,-0.72v0c1.53333,0 2.77333,0.53333 3.72,1.6c0.94667,1.06 1.42,2.47333 1.42,4.24v0v0.13c0,1.1 -0.21,2.08667 -0.63,2.96c-0.42,0.86667 -1.02,1.54333 -1.8,2.03c-0.78,0.48667 -1.67667,0.73 -2.69,0.73v0c-1.53333,0 -2.77333,-0.53 -3.72,-1.59c-0.94667,-1.06667 -1.42,-2.47333 -1.42,-4.22zM168.35,128.005v0c0,1.25333 0.29,2.25667 0.87,3.01c0.58,0.76 1.35667,1.14 2.33,1.14v0c0.98,0 1.75667,-0.38333 2.33,-1.15c0.57333,-0.76667 0.86,-1.84333 0.86,-3.23v0c0,-1.23333 -0.29333,-2.23333 -0.88,-3c-0.58667,-0.76667 -1.36333,-1.15 -2.33,-1.15v0c-0.95333,0 -1.72333,0.37667 -2.31,1.13c-0.58,0.76 -0.87,1.84333 -0.87,3.25zM178.58,127.915v-0.14c0,-1.1 0.21667,-2.09333 0.65,-2.98c0.43333,-0.88 1.03667,-1.56 1.81,-2.04c0.77333,-0.48 1.65667,-0.72 2.65,-0.72v0c1.53333,0 2.77667,0.53333 3.73,1.6c0.94667,1.06 1.42,2.47333 1.42,4.24v0v0.13c0,1.1 -0.21,2.08667 -0.63,2.96c-0.42,0.86667 -1.02,1.54333 -1.8,2.03c-0.78667,0.48667 -1.68667,0.73 -2.7,0.73v0c-1.52667,0 -2.76333,-0.53 -3.71,-1.59c-0.94667,-1.06667 -1.42,-2.47333 -1.42,-4.22zM180.52,128.005v0c0,1.25333 0.28667,2.25667 0.86,3.01c0.58,0.76 1.35667,1.14 2.33,1.14v0c0.98,0 1.76,-0.38333 2.34,-1.15c0.57333,-0.76667 0.86,-1.84333 0.86,-3.23v0c0,-1.23333 -0.29333,-2.23333 -0.88,-3c-0.58667,-0.76667 -1.36667,-1.15 -2.34,-1.15v0c-0.94667,0 -1.71333,0.37667 -2.3,1.13c-0.58,0.76 -0.87,1.84333 -0.87,3.25zM191.94,119.515h1.93v2.73h2.1v1.49h-2.1v6.99c0,0.45333 0.09333,0.79333 0.28,1.02c0.18667,0.22667 0.50667,0.34 0.96,0.34v0c0.22,0 0.52667,-0.04333 0.92,-0.13v0v1.56c-0.50667,0.14 -1,0.21 -1.48,0.21v0c-0.86667,0 -1.51667,-0.26 -1.95,-0.78c-0.44,-0.52 -0.66,-1.26 -0.66,-2.22v0v-6.99h-2.05v-1.49h2.05z"></path></g></g></svg>